<svg width="32" height="32" viewBox="0 0 32 32" fill="none" xmlns="http://www.w3.org/2000/svg">
  <!-- Background circle with gradient -->
  <defs>
    <linearGradient id="bgGradient" x1="0%" y1="0%" x2="100%" y2="100%">
      <stop offset="0%" style="stop-color:#a855f7;stop-opacity:1" />
      <stop offset="50%" style="stop-color:#3b82f6;stop-opacity:1" />
      <stop offset="100%" style="stop-color:#10b981;stop-opacity:1" />
    </linearGradient>
    <linearGradient id="swordGradient" x1="0%" y1="0%" x2="100%" y2="100%">
      <stop offset="0%" style="stop-color:#fbbf24;stop-opacity:1" />
      <stop offset="100%" style="stop-color:#f59e0b;stop-opacity:1" />
    </linearGradient>
  </defs>
  
  <!-- Background -->
  <circle cx="16" cy="16" r="15" fill="url(#bgGradient)" stroke="#1e293b" stroke-width="2"/>
  
  <!-- Sword (representing DeFi Knight) -->
  <path d="M16 4 L18 6 L18 12 L20 14 L20 16 L18 16 L16 14 L14 16 L12 16 L12 14 L14 12 L14 6 Z" fill="url(#swordGradient)" stroke="#92400e" stroke-width="0.5"/>
  
  <!-- Shield (representing protection/security) -->
  <path d="M8 18 L8 22 L10 26 L12 26 L14 22 L14 18 Z" fill="#ef4444" stroke="#dc2626" stroke-width="0.5"/>
  
  <!-- Coins (representing DeFi/yield) -->
  <circle cx="22" cy="20" r="3" fill="#fbbf24" stroke="#f59e0b" stroke-width="0.5"/>
  <circle cx="20" cy="22" r="2.5" fill="#fde047" stroke="#eab308" stroke-width="0.5"/>
  
  <!-- Magic sparkles (representing automation/AI) -->
  <path d="M6 8 L7 9 L6 10 L5 9 Z" fill="#ffffff" opacity="0.8"/>
  <path d="M26 10 L27 11 L26 12 L25 11 Z" fill="#ffffff" opacity="0.8"/>
  <path d="M24 6 L25 7 L24 8 L23 7 Z" fill="#ffffff" opacity="0.6"/>
</svg> 